<svg width="15" height="15" viewBox="0 0 15 15" fill="none" xmlns="http://www.w3.org/2000/svg">
<path d="M2.5 6.36626H5.75C5.88825 6.36626 6 6.25426 6 6.11626C6 5.97826 5.88825 5.86626 5.75 5.86626H2.5C2.36175 5.86626 2.25 5.97826 2.25 6.11626C2.25 6.25426 2.36175 6.36626 2.5 6.36626Z" fill="#FF9600"/>
<path d="M9 7.36626H2.5C2.36175 7.36626 2.25 7.47826 2.25 7.61626C2.25 7.75426 2.36175 7.86625 2.5 7.86625H9C9.13825 7.86625 9.25 7.75426 9.25 7.61626C9.25 7.47826 9.13825 7.36626 9 7.36626Z" fill="#FF9600"/>
<path d="M9 8.86626H2.5C2.36175 8.86626 2.25 8.97826 2.25 9.11626C2.25 9.25426 2.36175 9.36626 2.5 9.36626H9C9.13825 9.36626 9.25 9.25426 9.25 9.11626C9.25 8.97826 9.13825 8.86626 9 8.86626Z" fill="#FF9600"/>
<path d="M13.518 0.633757L4.9825 0.616257C4.165 0.616257 3.5 1.28126 3.5 2.09876V3.37976L1.4825 3.38401C0.665 3.38401 0 4.04901 0 4.86651V10.1518C0 10.9693 0.665 11.634 1.4825 11.634H3V14.134C3 14.2373 3.0635 14.33 3.16 14.3673C3.18925 14.3785 3.21975 14.384 3.25 14.384C3.319 14.384 3.38675 14.3553 3.435 14.3023L5.861 11.6335L10.0175 11.6165C10.835 11.6165 11.5 10.9515 11.5 10.1343V10.106L12.815 11.5525C12.8632 11.6055 12.931 11.6343 13 11.6343C13.0302 11.6343 13.0608 11.6288 13.09 11.6175C13.1865 11.5803 13.25 11.4875 13.25 11.3843V8.88426H13.5175C14.335 8.88426 15 8.21926 15 7.40201V2.11626C15 1.29901 14.3352 0.634007 13.518 0.633757ZM11 10.134C11 10.6758 10.5593 11.1163 10.0165 11.1163L5.749 11.1338C5.679 11.134 5.612 11.1638 5.565 11.2155L3.5 13.4873V11.3838C3.5 11.2458 3.38825 11.1338 3.25 11.1338H1.4825C0.94075 11.1338 0.5 10.693 0.5 10.1515V4.86626C0.5 4.32451 0.94075 3.88376 1.483 3.88376L3.75 3.87901C3.75025 3.87901 3.75025 3.87901 3.7505 3.87901L10.0175 3.86601C10.5592 3.86601 11 4.30676 11 4.84851V9.45876V10.134ZM14.5 7.40151C14.5 7.94326 14.0592 8.38376 13.5175 8.38376H13C12.8617 8.38376 12.75 8.49576 12.75 8.63376V10.7373L11.5 9.36226V4.84876C11.5 4.03126 10.835 3.36626 10.017 3.36626L4 3.37851V2.09851C4 1.55676 4.44075 1.11601 4.982 1.11601L13.5173 1.13351C13.5175 1.13351 13.5175 1.13351 13.5177 1.13351C14.0595 1.13351 14.5002 1.57426 14.5002 2.11601V7.40151H14.5Z" fill="#FF9600"/>
</svg>
