<svg width="40" height="40" viewBox="0 0 40 40" fill="none" xmlns="http://www.w3.org/2000/svg">
<rect x="12" y="8" width="21" height="28" rx="2" fill="#FF9600"/>
<path d="M22.5 2.5H17.5V4.16664H22.5V2.5Z" fill="black"/>
<path d="M13.3333 30H11.6666V31.6666H13.3333V30Z" fill="black"/>
<path d="M13.3333 26.6666H11.6666V28.3333H13.3333V26.6666Z" fill="black"/>
<path d="M16.6666 30H15V31.6666H16.6666V30Z" fill="black"/>
<path d="M35.8334 14.1666C34.6822 14.1666 32.9459 14.564 31.6667 15.762V2.5C31.6667 1.1193 30.5474 0 29.1667 0H10.8334C9.45267 0 8.33337 1.1193 8.33337 2.5V12.5H5.83337C4.45267 12.5 3.33337 13.6193 3.33337 15V16.6666C3.33337 17.307 3.57447 17.891 3.97048 18.3333C3.57447 18.7756 3.33337 19.3595 3.33337 19.9999V21.6666C3.33337 22.307 3.57447 22.8909 3.97048 23.3332C3.57447 23.7755 3.33337 24.3595 3.33337 24.9998V26.6665C3.33337 27.3069 3.57447 27.8909 3.97048 28.3331C3.57447 28.7755 3.33337 29.3594 3.33337 29.9998V31.6664C3.33337 33.0471 4.45267 34.1664 5.83337 34.1664H8.33337V37.5C8.33337 38.8807 9.45267 40 10.8334 40H29.1667C30.5474 40 31.6667 38.8807 31.6667 37.5V19.4241C31.8002 17.6399 33.1734 16.1512 35.0001 15.9208V39.1666H36.6667V15C36.6667 14.5398 36.2936 14.1666 35.8334 14.1666ZM10.8334 1.66664H29.1667C29.6269 1.66664 30 2.03977 30 2.5V5H10V2.5C10 2.03977 10.3731 1.66664 10.8334 1.66664ZM5.00001 26.6666V25C5.00001 24.5398 5.37314 24.1666 5.83337 24.1666H8.33337V27.5H5.83337C5.37314 27.5 5.00001 27.1269 5.00001 26.6666ZM5.00001 21.6666V20C5.00001 19.5398 5.37314 19.1666 5.83337 19.1666H8.33337V22.5H5.83337C5.37314 22.5 5.00001 22.1269 5.00001 21.6666ZM5.00001 15C5.00001 14.5398 5.37314 14.1666 5.83337 14.1666H8.33337V17.5H5.83337C5.37314 17.5 5.00001 17.1269 5.00001 16.6666V15ZM5.83337 32.5C5.37314 32.5 5.00001 32.1269 5.00001 31.6666V30C5.00001 29.5398 5.37314 29.1666 5.83337 29.1666H8.33337V32.5H5.83337ZM29.1667 38.3334H10.8334C10.3731 38.3334 10 37.9602 10 37.5V35H30V37.5C30 37.9602 29.6269 38.3334 29.1667 38.3334ZM30 33.3334H10V28.3334V23.3334V18.3334V13.3334V6.66664H30V33.3334Z" fill="black"/>
<path d="M20 11.6666C15.3976 11.6666 11.6666 15.3976 11.6666 20C11.6666 24.6024 15.3976 28.3334 20 28.3334C24.6003 28.3283 28.3283 24.6003 28.3333 20C28.3333 15.3977 24.6023 11.6666 20 11.6666ZM20 26.6666C16.3181 26.6666 13.3333 23.6819 13.3333 20C13.3333 16.3181 16.3181 13.3334 20 13.3334C23.6801 13.3375 26.6625 16.3198 26.6666 20C26.6666 23.6819 23.6819 26.6666 20 26.6666Z" fill="black"/>
<path d="M20 17.5C20.4602 17.5 20.8334 17.8731 20.8334 18.3334H22.5C22.5 17.2449 21.8042 16.3195 20.8334 15.9762V15H19.1667V15.9762C18.1958 16.3194 17.5 17.2449 17.5 18.3334C17.5 19.7141 18.6193 20.8334 20 20.8334C20.4602 20.8334 20.8334 21.2065 20.8334 21.6667C20.8334 22.127 20.4602 22.5001 20 22.5001C19.5398 22.5001 19.1666 22.127 19.1666 21.6667H17.5C17.5 22.7552 18.1958 23.6806 19.1666 24.0239V25H20.8333V24.0238C21.8041 23.6805 22.4999 22.7551 22.4999 21.6666C22.4999 20.2859 21.3806 19.1666 19.9999 19.1666C19.5397 19.1666 19.1666 18.7935 19.1666 18.3333C19.1666 17.8731 19.5398 17.5 20 17.5Z" fill="black"/>
<path d="M28.3333 8.33336H26.6666V10H28.3333V8.33336Z" fill="black"/>
<path d="M28.3333 11.6666H26.6666V13.3333H28.3333V11.6666Z" fill="black"/>
<path d="M25 8.33336H23.3334V10H25V8.33336Z" fill="black"/>
</svg>
