<svg width="20" height="20" viewBox="0 0 20 20" fill="none" xmlns="http://www.w3.org/2000/svg">
<path d="M10 0C4.486 0 0 4.486 0 10C0 15.514 4.486 20 10 20C15.514 20 20 15.514 20 10C20 4.486 15.514 0 10 0ZM10 19.3333C4.85367 19.3333 0.666667 15.1463 0.666667 10C0.666667 4.85367 4.85367 0.666667 10 0.666667C15.1463 0.666667 19.3333 4.85367 19.3333 10C19.3333 15.1463 15.1463 19.3333 10 19.3333Z" fill="black"/>
<path d="M10.3333 8.67367V5.293C10.3333 5.10867 10.184 4.95967 10 4.95967C9.816 4.95967 9.66667 5.10867 9.66667 5.293V8.67367C9.20033 8.795 8.83533 9.16 8.714 9.62634H6.33333C6.14933 9.62634 6 9.77534 6 9.95967C6 10.144 6.14933 10.293 6.33333 10.293H8.714C8.863 10.8663 9.38067 11.293 10 11.293C10.7353 11.293 11.3333 10.695 11.3333 9.95967C11.3333 9.34 10.9067 8.82267 10.3333 8.67367ZM10 10.6263C9.63233 10.6263 9.33333 10.3273 9.33333 9.95967C9.33333 9.592 9.63233 9.293 10 9.293C10.3677 9.293 10.6667 9.592 10.6667 9.95967C10.6667 10.3273 10.3677 10.6263 10 10.6263Z" fill="black"/>
<path d="M10 3.293C10.184 3.293 10.3334 3.144 10.3334 2.95967V2.62633C10.3334 2.442 10.184 2.293 10 2.293C9.81602 2.293 9.66669 2.442 9.66669 2.62633V2.95967C9.66669 3.144 9.81602 3.293 10 3.293Z" fill="black"/>
<path d="M10 16.6263C9.81602 16.6263 9.66669 16.7753 9.66669 16.9597V17.293C9.66669 17.4773 9.81602 17.6263 10 17.6263C10.184 17.6263 10.3334 17.4773 10.3334 17.293V16.9597C10.3334 16.7753 10.184 16.6263 10 16.6263Z" fill="black"/>
<path d="M17.3334 9.62634H17C16.816 9.62634 16.6667 9.77533 16.6667 9.95967C16.6667 10.144 16.816 10.293 17 10.293H17.3334C17.5174 10.293 17.6667 10.144 17.6667 9.95967C17.6667 9.77533 17.5174 9.62634 17.3334 9.62634Z" fill="black"/>
<path d="M2.99998 9.62634H2.66665C2.48265 9.62634 2.33331 9.77533 2.33331 9.95967C2.33331 10.144 2.48265 10.293 2.66665 10.293H2.99998C3.18398 10.293 3.33331 10.144 3.33331 9.95967C3.33331 9.77533 3.18398 9.62634 2.99998 9.62634Z" fill="black"/>
<path d="M14.9497 4.53833L14.714 4.774C14.5837 4.90433 14.5837 5.115 14.714 5.24533C14.779 5.31033 14.8644 5.343 14.9497 5.343C15.035 5.343 15.1204 5.31033 15.1854 5.24533L15.421 5.00966C15.5514 4.87933 15.5514 4.66866 15.421 4.53833C15.2907 4.408 15.08 4.40833 14.9497 4.53833Z" fill="black"/>
<path d="M4.81468 14.6737L4.57901 14.9093C4.44868 15.0397 4.44868 15.2503 4.57901 15.3807C4.64401 15.4457 4.72935 15.4783 4.81468 15.4783C4.90001 15.4783 4.98535 15.4457 5.05035 15.3807L5.28601 15.145C5.41635 15.0147 5.41635 14.804 5.28601 14.6737C5.15568 14.5433 4.94468 14.5437 4.81468 14.6737Z" fill="black"/>
<path d="M15.1854 14.6737C15.055 14.5433 14.8444 14.5433 14.714 14.6737C14.5837 14.804 14.5837 15.0147 14.714 15.145L14.9497 15.3807C15.0147 15.4457 15.1 15.4783 15.1854 15.4783C15.2707 15.4783 15.356 15.4457 15.421 15.3807C15.5514 15.2503 15.5514 15.0397 15.421 14.9093L15.1854 14.6737Z" fill="black"/>
<path d="M5.05035 4.53833C4.92001 4.408 4.70935 4.408 4.57901 4.53833C4.44868 4.66867 4.44868 4.87933 4.57901 5.00967L4.81468 5.24533C4.87968 5.31033 4.96501 5.343 5.05035 5.343C5.13568 5.343 5.22101 5.31033 5.28601 5.24533C5.41635 5.115 5.41635 4.90433 5.28601 4.774L5.05035 4.53833Z" fill="black"/>
</svg>
