<svg width="40" height="40" viewBox="0 0 40 40" fill="none" xmlns="http://www.w3.org/2000/svg">
<g clip-path="url(#clip0)">
<rect x="3" y="6" width="35" height="26" rx="2" fill="#FF9600"/>
<path d="M35 12.1985C35 11.0194 36.0149 10.0962 37.1887 10.2075L38.5074 10.3325C39.6381 10.4397 40.4528 11.4659 40.3006 12.5915L37.3639 34.3125C37.2159 35.4071 36.2086 36.1745 35.114 36.0265L3.23008 31.7158C2.50708 31.618 2.22286 30.7238 2.75674 30.2266C2.91332 30.0807 3.11844 29.9982 3.33239 29.9948L33.0312 29.5308C34.1235 29.5137 35 28.6234 35 27.531L35 12.1985Z" fill="#F2F2F2"/>
<path d="M21.3267 26.3314H31.99C32.3899 26.3314 32.6565 26.0648 32.6565 25.6649V19.6668C32.6565 19.2669 32.3899 19.0004 31.99 19.0004H21.3267C20.9268 19.0004 20.6603 19.2669 20.6603 19.6668V25.6649C20.6602 26.0647 20.9268 26.3314 21.3267 26.3314ZM21.9931 20.3332H31.3236V24.9984H21.9931V20.3332Z" fill="black"/>
<path d="M3.33233 17.6674H8.66402C9.06389 17.6674 9.33045 17.4008 9.33045 17.0009C9.33045 16.6011 9.06389 16.3345 8.66402 16.3345H3.33233C2.93245 16.3345 2.66589 16.6011 2.66589 17.0009C2.66589 17.4008 2.93245 17.6674 3.33233 17.6674Z" fill="black"/>
<path d="M11.3298 17.6674H16.6615C17.0613 17.6674 17.3279 17.4008 17.3279 17.0009C17.3279 16.6011 17.0613 16.3345 16.6615 16.3345H11.3298C10.9299 16.3345 10.6633 16.6011 10.6633 17.0009C10.6633 17.4008 10.9299 17.6674 11.3298 17.6674Z" fill="black"/>
<path d="M3.33233 20.3332H11.9963C12.3961 20.3332 12.6627 20.0667 12.6627 19.6668C12.6627 19.2669 12.3961 19.0004 11.9963 19.0004H3.33233C2.93245 19.0004 2.66589 19.2669 2.66589 19.6668C2.66589 20.0667 2.93245 20.3332 3.33233 20.3332Z" fill="black"/>
<path d="M16.6614 19.0003H14.662C14.2622 19.0003 13.9956 19.2669 13.9956 19.6667C13.9956 20.0666 14.2622 20.3332 14.662 20.3332H16.6614C17.0613 20.3332 17.3278 20.0666 17.3278 19.6667C17.3278 19.2669 17.0613 19.0003 16.6614 19.0003Z" fill="black"/>
<path d="M39.3877 10.7362C38.9212 10.1364 38.3214 9.80318 37.5883 9.73656L35.9888 9.54271V7.67049V6.33762C35.9888 4.87144 34.7891 3.67181 33.3229 3.67181H2.66581C1.19963 3.67174 0 4.87136 0 6.33762V7.67056V13.0023V27.6643C0 28.8681 0.808888 29.8916 1.90979 30.2196C1.87621 31.5678 2.89628 32.7382 4.26539 32.8627L35.0558 36.3283C35.1224 36.3283 35.2557 36.3283 35.3223 36.3283C36.6553 36.3283 37.8549 35.3286 37.9881 34.0623L39.9875 12.669C40.0541 12.0025 39.8542 11.2694 39.3877 10.7362ZM1.33294 8.337H34.6559V10.0698V12.3357H1.33294V8.337ZM2.66581 5.00468H33.3229C34.056 5.00468 34.6558 5.60449 34.6558 6.33762V7.00405H1.33294V6.33762C1.33294 5.60449 1.93276 5.00468 2.66581 5.00468ZM1.33294 27.6642V13.6686H34.6559V27.6642C34.6559 28.3974 34.0561 28.9972 33.3229 28.9972H2.73251H2.66589C1.93276 28.9972 1.33294 28.3974 1.33294 27.6642ZM38.6546 12.4024L36.6552 33.7957C36.5886 34.5288 35.9221 35.0619 35.189 34.9953L4.46525 31.5298C3.79881 31.4631 3.33224 30.9299 3.26562 30.3301H33.3229C34.7891 30.3301 35.9887 29.1305 35.9887 27.6643V13.0022V10.8029L37.5216 10.9362C37.8548 10.9362 38.188 11.1361 38.3879 11.4027C38.5879 11.6692 38.7213 12.0691 38.6546 12.4024Z" fill="black"/>
</g>
<defs>
<clipPath id="clip0">
<rect width="40" height="40" fill="white"/>
</clipPath>
</defs>
</svg>
