<svg width="20" height="20" viewBox="0 0 20 20" fill="none" xmlns="http://www.w3.org/2000/svg">
<g clip-path="url(#clip0)">
<path d="M19.711 11.9113C19.3415 11.2804 18.5332 11.064 17.8978 11.4256L15.066 13.0593C15.0044 12.9127 14.9158 12.7792 14.8045 12.6654C14.5563 12.4158 14.2187 12.2756 13.8664 12.2763H8.88958C8.8332 12.2763 8.77779 12.2907 8.72838 12.3181L6.53399 13.5391L6.16396 12.5232C6.10159 12.3508 5.91123 12.2615 5.73901 12.3241L2.62004 13.4588C2.53726 13.4888 2.4697 13.5505 2.43244 13.6302C2.39502 13.7101 2.39097 13.8014 2.4211 13.8842L2.5345 14.1958L0.35291 14.9907C0.270124 15.0207 0.202567 15.0823 0.165305 15.1621C0.127881 15.2418 0.123831 15.3332 0.153964 15.416L1.74358 19.7811C1.80596 19.9535 1.99615 20.0426 2.16853 19.9802L4.35142 19.1859L4.46482 19.4975C4.5272 19.6698 4.71756 19.7589 4.88993 19.6964L8.00874 18.5614C8.18112 18.499 8.27022 18.3088 8.20785 18.1364L8.12652 17.9167H11.8757C11.934 17.9167 11.9912 17.9014 12.0416 17.8724L19.225 13.725C19.6376 13.4896 19.8913 13.05 19.8886 12.5749C19.8881 12.3421 19.827 12.1133 19.711 11.9113ZM2.25374 19.2439L0.893529 15.501L2.76407 14.8201L4.12607 18.5614L2.25374 19.2439ZM4.9745 18.9599L3.15921 13.9685L5.65331 13.0602L7.46893 18.0494L4.9745 18.9599ZM18.8932 13.1502L11.7869 17.2532H7.88497L6.76323 14.1708L8.9756 12.9399H13.8664C14.0424 12.9395 14.211 13.0095 14.335 13.1343C14.4069 13.206 14.4607 13.294 14.4916 13.3907C14.5184 13.4585 14.5315 13.5307 14.53 13.6035C14.53 13.9699 14.2331 14.267 13.8664 14.267H10.2167V14.9306H13.8664C14.5365 14.9285 15.0993 14.4265 15.1777 13.7611L18.2282 12.0006C18.4334 11.8821 18.6863 11.882 18.8918 12.0006C19.097 12.119 19.2236 12.3379 19.2236 12.5749C19.2253 12.8122 19.099 13.0321 18.8932 13.1502Z" fill="black"/>
<path d="M7.99146 7.72826L11.9729 3.7466L12.4423 4.21593L8.46063 8.19743L7.99146 7.72826Z" fill="black"/>
<path d="M10.8804 7.63122C10.8804 8.18091 11.326 8.62659 11.8757 8.62659C12.4256 8.62659 12.8711 8.18091 12.8711 7.63122C12.8711 7.08153 12.4256 6.63585 11.8757 6.63585C11.326 6.63585 10.8804 7.08153 10.8804 7.63122ZM12.2075 7.63122C12.2075 7.81445 12.0591 7.96301 11.8757 7.96301C11.6925 7.96301 11.5439 7.81445 11.5439 7.63122C11.5439 7.44799 11.6925 7.29943 11.8757 7.29943C12.0591 7.29943 12.2075 7.44799 12.2075 7.63122Z" fill="black"/>
<path d="M8.55781 5.30868C9.10766 5.30868 9.55318 4.863 9.55318 4.3133C9.55318 3.76361 9.10766 3.31792 8.55781 3.31792C8.00812 3.31792 7.56244 3.76361 7.56244 4.3133C7.56244 4.863 8.00812 5.30868 8.55781 5.30868ZM8.55781 3.98151C8.7412 3.98151 8.8896 4.13007 8.8896 4.3133C8.8896 4.49654 8.7412 4.6451 8.55781 4.6451C8.37458 4.6451 8.22602 4.49654 8.22602 4.3133C8.22602 4.13007 8.37458 3.98151 8.55781 3.98151Z" fill="black"/>
<path d="M10.2167 10.6173C12.7823 10.6173 14.8618 8.53764 14.8618 5.97225C14.8618 3.40686 12.7823 1.32716 10.2167 1.32716C7.65135 1.32716 5.57166 3.40686 5.57166 5.97225C5.57441 8.5365 7.65248 10.6146 10.2167 10.6173ZM10.2167 1.99075C12.4157 1.99075 14.1982 3.77332 14.1982 5.97225C14.1982 8.17117 12.4157 9.95374 10.2167 9.95374C8.01781 9.95374 6.23524 8.17117 6.23524 5.97225C6.23767 3.77429 8.01894 1.99318 10.2167 1.99075Z" fill="black"/>
<path d="M9.88495 0H10.5485V0.663583H9.88495V0Z" fill="black"/>
<path d="M8.35144 0.287256L8.99235 0.115528L9.16424 0.75643L8.52333 0.92832L8.35144 0.287256Z" fill="black"/>
<path d="M6.94342 0.966233L7.51823 0.634441L7.85002 1.20908L7.27538 1.54087L6.94342 0.966233Z" fill="black"/>
<path d="M5.75928 1.98395L6.22846 1.51478L6.69763 1.98395L6.22846 2.45329L5.75928 1.98395Z" fill="black"/>
<path d="M4.8786 3.27352L5.21039 2.69888L5.78518 3.03067L5.45323 3.60532L4.8786 3.27352Z" fill="black"/>
<path d="M4.36359 4.74797L4.53548 4.1069L5.17637 4.27879L5.00465 4.91986L4.36359 4.74797Z" fill="black"/>
<path d="M4.24451 5.64048H4.90809V6.30406H4.24451V5.64048Z" fill="black"/>
<path d="M4.3623 7.19767L5.00321 7.02595L5.17494 7.66684L4.53403 7.83857L4.3623 7.19767Z" fill="black"/>
<path d="M4.87891 8.67082L5.45354 8.33902L5.78533 8.91367L5.21053 9.24546L4.87891 8.67082Z" fill="black"/>
<path d="M5.75928 9.96071L6.22862 9.49154L6.69779 9.96071L6.22862 10.4299L5.75928 9.96071Z" fill="black"/>
<path d="M6.94312 10.9786L7.2749 10.404L7.8497 10.7358L7.51775 11.3104L6.94312 10.9786Z" fill="black"/>
<path d="M8.35352 11.6576L8.52541 11.0167L9.16647 11.1886L8.99458 11.8295L8.35352 11.6576Z" fill="black"/>
<path d="M9.88495 11.2809H10.5485V11.9445H9.88495V11.2809Z" fill="black"/>
<path d="M11.2703 11.1858L11.9112 11.0138L12.0833 11.655L11.4424 11.827L11.2703 11.1858Z" fill="black"/>
<path d="M12.5839 10.7353L13.1587 10.4037L13.4903 10.9783L12.9157 11.3101L12.5839 10.7353Z" fill="black"/>
<path d="M13.7362 9.96072L14.2055 9.49154L14.6745 9.96089L14.2054 10.4301L13.7362 9.96072Z" fill="black"/>
<path d="M14.6483 8.91415L14.9801 8.33934L15.5549 8.67114L15.2231 9.24578L14.6483 8.91415Z" fill="black"/>
<path d="M15.2588 7.66684L15.4305 7.02578L16.0716 7.19751L15.8999 7.83856L15.2588 7.66684Z" fill="black"/>
<path d="M15.5255 5.64048H16.189V6.30406H15.5255V5.64048Z" fill="black"/>
<path d="M15.2588 4.2778L15.8997 4.10607L16.0714 4.74697L15.4305 4.9187L15.2588 4.2778Z" fill="black"/>
<path d="M14.6481 3.03067L15.2228 2.69888L15.5546 3.27369L14.9798 3.60532L14.6481 3.03067Z" fill="black"/>
<path d="M13.7357 1.98379L14.2049 1.51461L14.6741 1.98379L14.2049 2.45312L13.7357 1.98379Z" fill="black"/>
<path d="M12.5836 1.20889L12.9153 0.634083L13.49 0.965874L13.1584 1.54052L12.5836 1.20889Z" fill="black"/>
<path d="M11.27 0.758188L11.4422 0.116962L12.0829 0.289015L11.9109 0.930241L11.27 0.758188Z" fill="black"/>
</g>
<defs>
<clipPath id="clip0">
<rect width="20" height="20" fill="white"/>
</clipPath>
</defs>
</svg>
