<svg width="40" height="40" viewBox="0 0 40 40" fill="none" xmlns="http://www.w3.org/2000/svg">
<g clip-path="url(#clip0)">
<path d="M36 35.3333H37.3333V36.6667H36V35.3333Z" fill="black"/>
<path d="M11 16C11 11.5817 14.5817 8 19 8H25C29.4183 8 33 11.5817 33 16V27C33 28.1046 32.1046 29 31 29H13C11.8954 29 11 28.1046 11 27V16Z" fill="#FF9600"/>
<rect x="14" y="27" width="20" height="8" rx="2" fill="white"/>
<ellipse cx="27.5" cy="27" rx="5.5" ry="2" fill="white"/>
<path d="M32 23.3333V14C32.0094 9.61458 28.7327 5.91764 24.3779 5.40006L26.5999 0.964514C26.7034 0.757483 26.6921 0.511389 26.5697 0.314449C26.4473 0.117834 26.2318 -0.00130642 26 -4.33693e-06H14C13.7689 -4.33693e-06 13.5544 0.119462 13.4326 0.316076C13.3112 0.512366 13.3001 0.757808 13.4033 0.964514L15.6227 5.40006C11.2751 5.93131 8.00553 9.62011 8 14V26H9.33333V14C9.33822 9.95182 12.6185 6.67155 16.6667 6.66666H23.3333C25.279 6.66373 27.1462 7.43554 28.5218 8.81152C29.8978 10.1872 30.6696 12.0544 30.6667 14V23.3333H32ZM22.9212 5.33333H17.0788L15.0788 1.33333H24.9212L22.9212 5.33333Z" fill="black"/>
<path d="M14.3334 9.95931C14.6983 9.7474 15.0905 9.58626 15.4994 9.48079L15.1661 8.1901C14.6403 8.3265 14.1355 8.53353 13.6654 8.80534L14.3334 9.95931Z" fill="black"/>
<path d="M10.6666 16.6667H12V14C11.9967 12.738 12.5084 11.5293 13.4173 10.6533L12.4886 9.69727C11.3203 10.8232 10.6621 12.3773 10.6666 14V16.6667Z" fill="black"/>
<path d="M1.90137 32.7653L13.2194 38.9382C14.4932 39.6345 15.9216 39.9997 17.3734 40H39.3333C39.7015 40 40 39.7015 40 39.3333V27.3333C40 26.9652 39.7015 26.6667 39.3333 26.6667H34.2314L34.1553 26.6074C33.3724 25.9961 32.5068 25.4987 31.5846 25.1292C28.3499 23.8092 24.6768 24.1338 21.7233 26H16.6667C15.6051 25.9997 14.6068 26.5052 13.9785 27.361C13.3506 28.2168 13.1676 29.3206 13.486 30.3333L5.24479 26.2041C4.02084 25.5895 2.55306 25.7298 1.4681 26.5654C0.545575 27.2565 0.00195584 28.3408 2.71668e-06 29.4935V29.5667C-0.00162488 30.901 0.728193 32.1292 1.90137 32.7653ZM34.6667 28H38.6667V38.6667H34.6667V28ZM1.33334 29.4935C1.33822 28.7471 1.69662 28.0469 2.29948 27.6068C2.97819 27.0947 3.889 27.013 4.64811 27.3962L15.0355 32.596C15.1276 32.6426 15.2298 32.6667 15.3333 32.6667H25.3333V31.3333H16.6667C15.5622 31.3333 14.6667 30.4378 14.6667 29.3333C14.6667 28.2288 15.5622 27.3333 16.6667 27.3333H21.9199C22.0505 27.333 22.1781 27.2949 22.2874 27.2233C24.8994 25.5033 28.1921 25.1823 31.0872 26.3659C31.8929 26.6888 32.6491 27.1234 33.3333 27.6566V38.6667H17.3734C16.1449 38.6664 14.9365 38.3571 13.8587 37.7679L2.53744 31.5941C1.79395 31.1908 1.33171 30.4124 1.33334 29.5667V29.4935Z" fill="black"/>
<path d="M20.6667 23.3333V22H21.3333C22.806 22 24 20.806 24 19.3333C24 17.8607 22.806 16.6667 21.3333 16.6667H18.6667C17.9303 16.6667 17.3333 16.0697 17.3333 15.3333C17.3333 14.597 17.9303 14 18.6667 14H23.3333V12.6667H20.6667V11.3333H19.3333V12.6667H18.6667C17.194 12.6667 16 13.8607 16 15.3333C16 16.806 17.194 18 18.6667 18H21.3333C22.0697 18 22.6667 18.597 22.6667 19.3333C22.6667 20.0697 22.0697 20.6667 21.3333 20.6667H16.6667V22H19.3333V23.3333H20.6667Z" fill="black"/>
</g>
<defs>
<clipPath id="clip0">
<rect width="40" height="40" fill="white"/>
</clipPath>
</defs>
</svg>
