<svg width="16" height="16" viewBox="0 0 16 16" fill="none" xmlns="http://www.w3.org/2000/svg">
<path d="M7.99994 1.25031C7.82687 1.25031 7.68774 1.38968 7.68774 1.56249C7.68774 1.72334 7.80875 1.85718 7.96869 1.87305C8.15385 1.89143 8.31213 1.74721 8.31213 1.56249C8.31213 1.38943 8.17275 1.25031 7.99994 1.25031Z" fill="black"/>
<path d="M14.25 1.875C13.3884 1.875 12.6875 1.17406 12.6875 0.3125C12.6875 0.139938 12.5476 0 12.375 0H3.625C3.45244 0 3.3125 0.139938 3.3125 0.3125C3.3125 1.17406 2.61156 1.875 1.75 1.875C1.57744 1.875 1.4375 2.01494 1.4375 2.1875V7.28719C1.4375 11.2615 4.02797 14.8227 7.91025 15.9868C7.93953 15.9956 7.96975 16 8 16C8.03025 16 8.06053 15.9956 8.08978 15.9868C11.888 14.8475 14.5625 11.3484 14.5625 7.28719V2.1875C14.5625 2.01494 14.4226 1.875 14.25 1.875ZM13.9375 7.28719C13.9375 11.0199 11.5556 14.2526 8 15.3607C4.47275 14.2614 2.0625 10.9995 2.0625 7.28719V2.47775C3.01909 2.34031 3.77781 1.58159 3.91525 0.625H12.0848C12.2222 1.58159 12.9809 2.34031 13.9375 2.47775V7.28719Z" fill="black"/>
<path d="M13.1254 2.89031C12.4737 2.60491 11.9576 2.08881 11.6722 1.43712C11.6224 1.32344 11.5101 1.25 11.3859 1.25H9.24938C9.07681 1.25 8.93688 1.38994 8.93688 1.5625C8.93688 1.73506 9.07681 1.875 9.24938 1.875H11.1883C11.5185 2.52128 12.0412 3.04397 12.6875 3.37416V7.28719C12.6875 10.3454 10.8516 12.9842 8 14.0404C5.14841 12.9841 3.3125 10.3454 3.3125 7.28719V3.37416C3.95878 3.04397 4.48147 2.52128 4.81166 1.875H6.75063C6.92319 1.875 7.06313 1.73506 7.06313 1.5625C7.06313 1.38994 6.92319 1.25 6.75063 1.25H4.61406C4.48994 1.25 4.37763 1.32347 4.32781 1.43712C4.04241 2.08881 3.52631 2.60491 2.87462 2.89031C2.76097 2.94013 2.6875 3.05247 2.6875 3.17656V7.28719C2.6875 10.6376 4.75972 13.5576 7.89575 14.6674C7.92947 14.6793 7.96472 14.6853 8 14.6853C8.03528 14.6853 8.07053 14.6793 8.10425 14.6674C11.2377 13.5585 13.3125 10.6403 13.3125 7.28719V3.17656C13.3125 3.05244 13.239 2.94013 13.1254 2.89031Z" fill="#FF9600"/>
<path d="M8 4.5625C6.44919 4.5625 5.1875 5.82419 5.1875 7.375C5.1875 8.92581 6.44919 10.1875 8 10.1875C9.55081 10.1875 10.8125 8.92581 10.8125 7.375C10.8125 5.82419 9.55081 4.5625 8 4.5625ZM8 9.5625C6.79381 9.5625 5.8125 8.58119 5.8125 7.375C5.8125 6.16881 6.79381 5.1875 8 5.1875C9.20619 5.1875 10.1875 6.16881 10.1875 7.375C10.1875 8.58119 9.20619 9.5625 8 9.5625Z" fill="black"/>
<path d="M9.47099 6.529C9.34893 6.407 9.15112 6.407 9.02902 6.529L7.68752 7.87053L7.28349 7.46653C7.16143 7.34453 6.96362 7.34453 6.84152 7.46653C6.71949 7.58857 6.71949 7.78644 6.84152 7.9085L7.46652 8.53351C7.52759 8.59447 7.60752 8.62501 7.68752 8.62501C7.76752 8.62501 7.84746 8.59447 7.90849 8.53347L9.47099 6.97097C9.59302 6.84894 9.59302 6.65106 9.47099 6.529Z" fill="#FF9600"/>
</svg>
