<svg width="155" height="155" viewBox="0 0 155 155" fill="none" xmlns="http://www.w3.org/2000/svg">
<g clip-path="url(#clip0)">
<path d="M142.134 77.5C142.134 113.113 113.264 141.982 77.6514 141.982C42.0387 141.982 13.1689 113.113 13.1689 77.5C13.1689 41.8873 42.0387 13.0176 77.6514 13.0176C113.264 13.0176 142.134 41.8873 142.134 77.5Z" fill="#FF9600"/>
<path d="M142.134 77.5C142.134 113.114 113.265 141.982 77.6514 141.982C76.107 141.982 74.5756 141.928 73.0583 141.822C106.529 139.464 132.945 111.569 132.945 77.5C132.945 43.4306 106.529 15.5364 73.0583 13.1784C74.5756 13.072 76.107 13.0176 77.6514 13.0176C113.265 13.0176 142.134 41.8861 142.134 77.5Z" fill="#E79732"/>
<path d="M59.3442 152.729C53.0495 152.729 47.9468 147.627 47.9468 141.332V139.833C47.9468 133.538 53.0495 128.435 59.3442 128.435C65.639 128.435 70.7417 133.538 70.7417 139.833V141.332C70.7417 147.627 65.639 152.729 59.3442 152.729Z" fill="white"/>
<path d="M58.8109 41.9535C59.2768 37.6254 61.1973 33.6248 64.3429 30.523C67.9189 26.9966 72.635 25.0655 77.6525 25.0655C77.7424 25.0655 77.8347 25.0655 77.9245 25.0666C88.0815 25.2085 96.4611 33.587 96.603 43.7451C96.674 48.8632 94.7369 53.6869 91.1467 57.3256C87.5564 60.9667 82.7635 62.9723 77.6502 62.9723L77.5201 62.9711C77.4527 62.9711 77.3853 62.9711 77.3179 62.9711C69.4763 62.9711 62.1138 65.9996 56.564 71.5127C51.0072 77.0329 47.9467 84.386 47.9467 92.2193V114.304C47.9467 115.976 49.3019 117.331 50.9741 117.331H67.7132C69.3853 117.331 70.7405 115.976 70.7405 114.304V92.3836C70.7405 90.6228 71.3933 88.8998 72.6491 87.6641C73.8944 86.4378 75.5511 85.7649 77.2942 85.7649H77.3392L77.6502 85.7672C88.9117 85.7672 99.4683 81.3504 107.377 73.3327C115.284 65.3149 119.552 54.6944 119.394 43.4282C119.243 32.538 114.892 22.2734 107.144 14.5253C99.3962 6.77723 89.1316 2.42661 78.2415 2.27524C78.0404 2.27287 77.8417 2.27051 77.6419 2.27051C66.5992 2.27051 56.2128 6.52653 48.337 14.2936C40.8112 21.7153 36.4594 31.4725 35.9532 41.9535V48.9519C35.9532 50.624 37.3085 51.9793 38.9806 51.9793H55.78C57.4509 51.9793 58.8061 50.6252 58.8073 48.9531L58.8109 41.9535Z" fill="white"/>
<path d="M120.258 122.827C108.678 133.716 93.5473 139.712 77.6514 139.712C76.1046 139.712 74.5472 139.654 73.0039 139.539C72.8478 132.139 66.7825 126.165 59.3442 126.165C54.6317 126.165 50.4679 128.563 48.0106 132.203C38.549 127.066 30.5549 119.555 24.8372 110.395C18.6891 100.546 15.4395 89.1706 15.4395 77.5C15.4395 60.1342 22.7512 43.6245 35.3147 31.929C34.4017 35.1337 33.8495 38.4567 33.6851 41.8447C33.6839 41.8802 33.6827 41.9169 33.6827 41.9535V48.9519C33.6827 51.8728 36.0597 54.2498 38.9806 54.2498H55.7812C58.7009 54.2498 61.0767 51.874 61.079 48.9543L61.0826 42.0789C61.5166 38.2805 63.1946 34.8452 65.9381 32.1383C69.079 29.0412 73.2393 27.336 77.6525 27.336L77.8938 27.3372C80.3689 27.3714 82.7576 27.9544 84.9927 29.0684C86.1137 29.6278 87.4784 29.1725 88.0378 28.0502C88.5971 26.928 88.1418 25.5645 87.0196 25.0051C84.1684 23.5837 81.1198 22.8411 77.9482 22.7961L77.6537 22.795C72.039 22.795 66.7458 24.9649 62.75 28.9064C59.2236 32.3843 57.0808 36.8118 56.5546 41.7111C56.5463 41.7915 56.5416 41.8719 56.5416 41.9524L56.538 48.9519C56.538 49.3694 56.1986 49.7087 55.7812 49.7087H38.9806C38.5643 49.7087 38.2238 49.3694 38.2238 48.9519V42.0091C38.7145 32.1407 42.8712 22.8742 49.9323 15.9089C57.3658 8.57826 67.207 4.54102 77.6431 4.54102C77.8311 4.54102 78.0191 4.5422 78.2107 4.54575C88.5061 4.68884 98.2125 8.80295 105.54 16.1301C112.867 23.4584 116.981 33.1636 117.125 43.4601C117.273 54.1138 113.237 64.1572 105.761 71.7374C98.2822 79.3211 88.3003 83.4967 77.6644 83.4967L77.2942 83.4944C74.9433 83.4944 72.7284 84.4002 71.0563 86.0463C69.4137 87.6641 68.4712 89.9736 68.4712 92.3848V114.304C68.4712 114.721 68.1306 115.06 67.7143 115.06H50.9741C50.5566 115.06 50.2172 114.721 50.2172 114.304V92.2193C50.2172 84.9962 53.04 78.2143 58.164 73.1245C63.2809 68.0419 70.083 65.2416 77.3179 65.2416L77.6514 65.2428C83.3761 65.2428 88.7437 62.9983 92.7633 58.9209C96.7828 54.8458 98.9528 49.445 98.8723 43.7144C98.8168 39.6736 97.5881 35.7392 95.3199 32.3358C94.6234 31.2928 93.2138 31.0114 92.1708 31.7067C91.1278 32.402 90.8463 33.8116 91.5417 34.8547C93.3238 37.5284 94.2887 40.6137 94.3325 43.777C94.3952 48.2838 92.6899 52.5291 89.5313 55.7327C86.3704 58.9374 82.151 60.7018 77.662 60.7018L77.3191 60.7006C68.8768 60.7006 60.9371 63.9692 54.964 69.9021C48.9744 75.8527 45.6762 83.7782 45.6762 92.2205V114.304C45.6762 117.226 48.0532 119.601 50.9741 119.601H67.7143C70.6353 119.601 73.0122 117.226 73.0122 114.304V92.3848C73.0122 91.1834 73.4604 90.0528 74.2421 89.283C75.0592 88.4789 76.1424 88.0366 77.2942 88.0366L77.6514 88.0378C89.5242 88.0378 100.656 83.382 108.994 74.9268C117.331 66.4738 121.83 55.2762 121.666 43.3974C121.611 39.4643 121.036 35.6091 119.977 31.9113C131.181 42.3107 138.223 56.4895 139.605 71.8521C139.712 73.0323 140.702 73.9192 141.864 73.9192C141.933 73.9192 142.001 73.9157 142.07 73.9098C143.319 73.7974 144.241 72.6941 144.129 71.4453C142.387 52.0904 132.282 34.4857 116.405 23.145C116.4 23.1414 116.395 23.1391 116.391 23.1355C114.378 19.4258 111.818 15.9858 108.751 12.9194C100.582 4.75033 89.7584 0.164375 78.2758 0.00473022C78.0641 0.00118256 77.8536 0 77.6431 0C66.0056 0 55.0326 4.50199 46.7429 12.6758C43.5796 15.7966 40.9401 19.3324 38.8765 23.1604C30.4354 29.1938 23.4217 37.215 18.5862 46.3716C13.5568 55.8959 10.8984 66.6595 10.8984 77.5C10.8984 90.0221 14.3858 102.228 20.9856 112.799C27.1763 122.717 35.8551 130.831 46.1292 136.345C45.8347 137.459 45.6762 138.628 45.6762 139.833V141.332C45.6762 148.868 51.8078 155 59.3442 155C65.9417 155 71.4619 150.301 72.7355 144.074C74.3674 144.193 76.0147 144.253 77.6514 144.253C94.7086 144.253 110.944 137.819 123.368 126.136C124.282 125.276 124.326 123.84 123.467 122.927C122.607 122.013 121.171 121.969 120.258 122.827ZM68.4712 141.332C68.4712 146.365 64.376 150.459 59.3442 150.459C54.3113 150.459 50.2172 146.365 50.2172 141.332V139.833C50.2172 134.801 54.3113 130.707 59.3442 130.707C64.376 130.707 68.4712 134.801 68.4712 139.833V141.332Z" fill="#474D54"/>
<path d="M142.148 79.2691C140.893 79.1887 139.82 80.1442 139.742 81.3953C138.966 93.9588 134.456 105.846 126.699 115.771C125.928 116.76 126.103 118.187 127.091 118.958C127.506 119.283 127.999 119.439 128.487 119.439C129.162 119.439 129.831 119.14 130.278 118.568C138.602 107.915 143.441 95.1579 144.274 81.6756C144.351 80.4233 143.399 79.3471 142.148 79.2691Z" fill="#474D54"/>
<path d="M83.1692 98.4715H89.419C90.6737 98.4715 91.6895 97.4556 91.6895 96.2009C91.6895 94.9474 90.6737 93.9304 89.419 93.9304H83.1692C81.9145 93.9304 80.8987 94.9474 80.8987 96.2009C80.8987 97.4556 81.9145 98.4715 83.1692 98.4715Z" fill="white"/>
<path d="M104.663 102.303H83.1692C81.9145 102.303 80.8987 103.32 80.8987 104.573C80.8987 105.828 81.9145 106.844 83.1692 106.844H104.663C105.917 106.844 106.934 105.828 106.934 104.573C106.934 103.32 105.917 102.303 104.663 102.303Z" fill="white"/>
<path d="M104.663 109.261H83.1692C81.9145 109.261 80.8987 110.278 80.8987 111.532C80.8987 112.786 81.9145 113.802 83.1692 113.802H104.663C105.917 113.802 106.934 112.786 106.934 111.532C106.934 110.278 105.917 109.261 104.663 109.261Z" fill="white"/>
</g>
<defs>
<clipPath id="clip0">
<rect width="155" height="155" fill="white"/>
</clipPath>
</defs>
</svg>
