<svg width="20" height="20" viewBox="0 0 20 20" fill="none" xmlns="http://www.w3.org/2000/svg">
<path d="M19 1.33333H16.6667V0.333333C16.6667 0.149 16.5177 0 16.3334 0H14C13.8157 0 13.6667 0.149 13.6667 0.333333V1.33333H6.33335V0.333333C6.33335 0.149 6.18435 0 6.00002 0H3.66669C3.48235 0 3.33335 0.149 3.33335 0.333333V1.33333H1.00002C0.815687 1.33333 0.666687 1.48233 0.666687 1.66667V5.33333V19.6667C0.666687 19.851 0.815687 20 1.00002 20H19C19.1844 20 19.3334 19.851 19.3334 19.6667V5.33333V1.66667C19.3334 1.48233 19.1844 1.33333 19 1.33333ZM14.3334 0.666667H16V1.66667V2.66667H14.3334V1.66667V0.666667ZM4.00002 0.666667H5.66669V1.66667V2.66667H4.00002V1.66667V0.666667ZM1.33335 2H3.33335V3C3.33335 3.18433 3.48235 3.33333 3.66669 3.33333H6.00002C6.18435 3.33333 6.33335 3.18433 6.33335 3V2H13.6667V3C13.6667 3.18433 13.8157 3.33333 14 3.33333H16.3334C16.5177 3.33333 16.6667 3.18433 16.6667 3V2H18.6667V5H1.33335V2ZM1.33335 19.3333V5.66667H18.6667V19.3333H1.33335Z" fill="black"/>
<path d="M12.6667 7.66666H10.3334H9.66669H7.33335H6.66669H3.66669V10.6667V11.3333V13.6667V14.3333V17.3333H6.66669H7.33335H9.66669H10.3334H12.6667H13.3334H16.3334V14.3333V13.6667V11.3333V10.6667V7.66666H13.3334H12.6667ZM10.3334 8.33333H12.6667V10.6667H10.3334V8.33333ZM12.6667 13.6667H10.3334V11.3333H12.6667V13.6667ZM7.33335 11.3333H9.66669V13.6667H7.33335V11.3333ZM7.33335 8.33333H9.66669V10.6667H7.33335V8.33333ZM4.33335 8.33333H6.66669V10.6667H4.33335V8.33333ZM4.33335 11.3333H6.66669V13.6667H4.33335V11.3333ZM6.66669 16.6667H4.33335V14.3333H6.66669V16.6667ZM9.66669 16.6667H7.33335V14.3333H9.66669V16.6667ZM12.6667 16.6667H10.3334V14.3333H12.6667V16.6667ZM15.6667 16.6667H13.3334V14.3333H15.6667V16.6667ZM15.6667 13.6667H13.3334V11.3333H15.6667V13.6667ZM15.6667 8.33333V10.6667H13.3334V8.33333H15.6667Z" fill="black"/>
</svg>
