<svg width="20" height="20" viewBox="0 0 20 20" fill="none" xmlns="http://www.w3.org/2000/svg">
<path d="M19.9963 7C19.9633 6.42967 19.285 5.984 17.9283 5.644C17.974 5.544 17.9997 5.44 18 5.332V3H17.9943C17.875 1.05733 9.91433 1 9 1C8.08567 1 0.125 1.05733 0.00566667 3H0V3.04333V5.333C0.00166667 5.96633 0.819 6.462 2.035 6.831C2.01833 6.88633 2.00833 6.94267 2.005 7H2V7.04333V9.329C0.69 9.66633 0.0356667 10.1057 0.00333333 10.6667H0V10.71V12.9997C0.001 13.4407 0.398667 13.8147 1.04933 14.1263C1.02467 14.194 1.00933 14.263 1.005 14.3337H1V14.377V16.6667C1.00267 17.7753 3.499 18.4637 6.27267 18.785C6.293 18.789 6.31167 18.7973 6.33333 18.7973C6.33967 18.7973 6.345 18.794 6.35133 18.7937C6.886 18.854 7.42933 18.901 7.967 18.9347C7.97833 18.936 7.98833 18.9413 8 18.9413C8.00633 18.9413 8.01133 18.938 8.01733 18.9377C8.7 18.979 9.37167 19 10 19C10.6283 19 11.3 18.979 11.9827 18.9373C11.9887 18.9377 11.994 18.941 12 18.941C12.0117 18.941 12.0217 18.9353 12.033 18.9343C12.5707 18.9007 13.114 18.854 13.6487 18.7933C13.655 18.7933 13.6603 18.7967 13.6667 18.7967C13.6883 18.7967 13.707 18.7883 13.7273 18.7843C16.501 18.463 18.997 17.7743 19 16.6653V14.3333H18.9947C18.9713 13.9247 18.623 13.5837 17.935 13.2987C17.977 13.2023 18 13.1023 18 12.9987V10.82C19.1967 10.452 19.9983 9.95967 20 9.332V7H19.9963ZM17.2973 13.107L17.1837 13.2067C17.0087 13.361 16.717 13.5167 16.3333 13.6667V12.0773C16.7297 11.9393 17.067 11.7863 17.3333 11.6187V12.998C17.3333 13.0323 17.3207 13.069 17.2973 13.107ZM9.842 14.656C9.79333 14.6573 9.74433 14.658 9.69533 14.659C9.57633 14.6613 9.45433 14.662 9.33367 14.663V12.998C9.42533 12.997 9.517 12.9957 9.60867 12.994C9.62633 12.9937 9.644 12.9933 9.66167 12.993C9.99733 12.9867 10.333 12.9763 10.667 12.961V14.6253C10.5957 14.629 10.524 14.6323 10.4517 14.6353C10.251 14.6443 10.0483 14.651 9.842 14.656ZM8.38633 14.6607C8.23367 14.658 8.08167 14.6543 7.93067 14.6497C7.912 14.649 7.89333 14.6483 7.87467 14.6477C7.693 14.6417 7.51267 14.634 7.33367 14.6253V12.9613C7.66767 12.977 8.00333 12.9873 8.339 12.9933C8.35667 12.9937 8.37433 12.994 8.39167 12.9943C8.48333 12.996 8.575 12.9973 8.66667 12.9983V14.6643C8.602 14.6637 8.53733 14.6637 8.473 14.6627C8.44367 14.662 8.41533 14.661 8.38633 14.6607ZM2.36567 13.9007C2.35467 13.8973 2.34433 13.8943 2.33333 13.8913V12.281C2.64467 12.365 2.97933 12.4417 3.33333 12.5113V14.1383C3.02733 14.0733 2.745 14.005 2.488 13.935C2.44733 13.9233 2.40533 13.9123 2.36567 13.9007ZM9.39167 16.661C9.48333 16.6627 9.575 16.664 9.66667 16.665V18.3313C9.206 18.327 8.76133 18.3137 8.33333 18.2927V16.6283C8.66733 16.644 9.003 16.6543 9.33867 16.6603C9.35633 16.6603 9.374 16.6607 9.39167 16.661ZM10.6613 16.66C10.997 16.6537 11.3327 16.6433 11.6667 16.628V18.2923C11.2387 18.3133 10.794 18.3267 10.3333 18.331V16.6647C10.425 16.6637 10.5167 16.6623 10.6083 16.6607C10.626 16.6607 10.6437 16.6603 10.6613 16.66ZM13.3333 16.5093V18.1647C13.013 18.1983 12.6797 18.228 12.3333 18.2523V16.59C12.6713 16.568 13.0053 16.541 13.3333 16.5093ZM14 16.4373C14.3437 16.396 14.6773 16.349 15 16.2967V17.9333C14.686 17.9887 14.3523 18.0397 14 18.086V16.4373ZM15.6667 16.1777C16.0207 16.108 16.3553 16.0313 16.6667 15.9473V17.5577C16.3697 17.6433 16.0353 17.7263 15.6667 17.8047V16.1777ZM4.33333 16.1777V17.8047C3.96467 17.7263 3.63033 17.6433 3.33333 17.5577V15.9473C3.64467 16.0313 3.97933 16.1083 4.33333 16.1777ZM5 16.297C5.32267 16.3493 5.65633 16.3963 6 16.4377V18.0863C5.64767 18.04 5.314 17.989 5 17.9337V16.297ZM6.66667 16.5093C6.99467 16.541 7.32867 16.568 7.66667 16.5903V18.2527C7.32033 18.2283 6.987 18.1987 6.66667 18.165V16.5093ZM5.83967 14.516C5.80567 14.5127 5.772 14.509 5.73833 14.5057C5.71433 14.5033 5.69067 14.5003 5.66667 14.498V12.843C5.99467 12.8747 6.32867 12.9017 6.66667 12.924V14.585C6.38667 14.565 6.11 14.5423 5.83967 14.516ZM5 12.7707V14.4193C4.64767 14.373 4.314 14.322 4 14.2667V12.63C4.32267 12.6823 4.65633 12.7297 5 12.7707ZM11.5553 14.5693C11.482 14.575 11.408 14.5807 11.3333 14.586V12.9237C11.6713 12.9013 12.0053 12.8747 12.3333 12.8427V14.498C12.1273 14.5197 11.9167 14.54 11.7003 14.5577C11.652 14.562 11.6037 14.5657 11.5553 14.5693ZM13 14.4193V12.7707C13.3437 12.7293 13.6773 12.6823 14 12.63V14.2667C13.686 14.322 13.3523 14.3733 13 14.4193ZM14.6667 12.511C15.0207 12.4413 15.3553 12.3647 15.6667 12.2807V13.891C15.3697 13.9767 15.0353 14.0597 14.6667 14.138V12.511ZM10.1083 10.9883C9.85767 10.982 9.61267 10.9723 9.372 10.9607C9.359 10.96 9.346 10.9593 9.33333 10.959V9.29467C9.66733 9.31033 10.003 9.32067 10.3387 9.32667C10.3563 9.327 10.374 9.32733 10.3913 9.32767C10.483 9.32933 10.5747 9.33067 10.6663 9.33167V10.996C10.504 10.9943 10.3403 10.9937 10.182 10.99C10.1577 10.9893 10.1327 10.989 10.1083 10.9883ZM2.33333 6.22467V4.61433C2.64467 4.69833 2.97933 4.775 3.33333 4.84467V6.47167C3.29233 6.463 3.25 6.45433 3.21 6.44567C3.03267 6.40667 2.85967 6.366 2.69433 6.323C2.56833 6.29067 2.44867 6.25767 2.33333 6.22467ZM8.39167 5.32767C8.48333 5.32933 8.575 5.33067 8.66667 5.33167V6.996C8.218 6.99167 7.772 6.98 7.33333 6.958V5.295C7.66733 5.31067 8.003 5.321 8.33867 5.327C8.35633 5.327 8.374 5.32733 8.39167 5.32767ZM9.66133 5.32667C9.997 5.32033 10.3327 5.31 10.6667 5.29467V6.95767C10.61 6.96033 10.5557 6.96433 10.4987 6.967C10.494 6.96733 10.4893 6.96733 10.4843 6.96767C10.2607 6.97767 10.0327 6.985 9.80167 6.99033C9.76567 6.99133 9.72967 6.99167 9.69367 6.99267C9.575 6.995 9.45367 6.99533 9.33333 6.99667V5.33167C9.425 5.33067 9.51667 5.32933 9.60833 5.32767C9.626 5.32733 9.64367 5.327 9.66133 5.32667ZM17.257 5.494L17.2477 5.492L17.1263 5.58633C16.9503 5.72333 16.68 5.862 16.3333 5.996V4.41033C16.7297 4.27233 17.067 4.11933 17.3333 3.95167V5.331C17.3333 5.38167 17.3067 5.43633 17.257 5.494ZM13 6.75067V5.104C13.3437 5.06267 13.6773 5.01567 14 4.96333V6.59733C13.684 6.65333 13.3513 6.70467 13 6.75067ZM14.6667 6.469V4.84467C15.0207 4.775 15.3553 4.69833 15.6667 4.61433V6.221C15.368 6.308 15.0317 6.391 14.6667 6.469ZM12.3333 5.176V6.82933C12.0113 6.86333 11.678 6.893 11.3333 6.91767V5.257C11.6713 5.23467 12.0053 5.20767 12.3333 5.176ZM5.66667 6.83V5.176C5.99467 5.20767 6.32867 5.23467 6.66667 5.257V6.91633C6.32733 6.892 5.99267 6.86433 5.66667 6.83ZM5 5.104V6.751C4.934 6.74233 4.86533 6.73533 4.8 6.72633C4.75733 6.72033 4.71667 6.714 4.67467 6.708C4.482 6.68033 4.29367 6.65067 4.109 6.61967C4.072 6.61333 4.03633 6.60667 4 6.60033V4.96367C4.32267 5.01567 4.65633 5.063 5 5.104ZM8.584 10.913C8.539 10.9097 8.49367 10.9063 8.449 10.903C8.23567 10.8863 8.02733 10.868 7.824 10.8477C7.78033 10.8433 7.73667 10.8387 7.69333 10.8343C7.68433 10.8333 7.67567 10.832 7.66667 10.8313V9.176C7.99467 9.20767 8.32867 9.23467 8.66667 9.257V10.9183C8.63967 10.9163 8.611 10.915 8.584 10.913ZM6.38167 10.664C6.24967 10.643 6.12567 10.6203 6 10.5983V8.96367C6.32267 9.016 6.65633 9.063 7 9.10433V10.753C6.796 10.726 6.59633 10.698 6.40467 10.668C6.397 10.6663 6.38933 10.665 6.38167 10.664ZM5.33333 8.84433V10.4687C4.965 10.3897 4.631 10.3057 4.33333 10.2183V8.614C4.64467 8.698 4.97933 8.775 5.33333 8.84433ZM3.66667 8.41033V9.994C3.14267 9.79167 2.80467 9.585 2.69467 9.401L2.67233 9.36367C2.67033 9.35333 2.667 9.34233 2.66667 9.332V7.95167C2.933 8.11933 3.27033 8.27233 3.66667 8.41033ZM11.6613 9.32667C11.997 9.32033 12.3327 9.31 12.6667 9.29467V10.9573C12.2287 10.979 11.7833 10.991 11.3333 10.9957V9.33167C11.425 9.33067 11.5167 9.32933 11.6083 9.32767C11.626 9.32733 11.6437 9.327 11.6613 9.32667ZM15.969 10.6057C15.8227 10.631 15.675 10.656 15.5233 10.679C15.4363 10.6923 15.3473 10.705 15.258 10.7177C15.1737 10.7297 15.086 10.74 15.0003 10.751V9.104C15.344 9.06267 15.6777 9.01567 16.0003 8.96333V10.6C15.9897 10.602 15.9793 10.604 15.969 10.6057ZM13.712 10.8903C13.5877 10.9007 13.4593 10.9073 13.3333 10.9163V9.257C13.6713 9.23467 14.0053 9.208 14.3333 9.176V10.8297C14.1397 10.85 13.9463 10.8703 13.7473 10.887C13.7353 10.888 13.724 10.8893 13.712 10.8903ZM17.5213 10.2653C17.3553 10.3117 17.1797 10.355 17.0003 10.3973C16.9173 10.4167 16.8327 10.436 16.746 10.4547C16.7203 10.4603 16.693 10.4653 16.667 10.471V8.84467C17.021 8.775 17.3557 8.69833 17.667 8.61433V10.2247C17.619 10.238 17.5707 10.2517 17.5213 10.2653ZM19.3297 7.02167C19.299 7.248 18.786 7.549 17.8703 7.832C16.691 8.19633 14.8457 8.53 12.507 8.63333C12.3873 8.63833 12.268 8.64333 12.146 8.64733C12.0463 8.65067 11.9463 8.65367 11.8447 8.65633C11.5687 8.66233 11.2887 8.66667 11 8.66667C10.7113 8.66667 10.4313 8.66233 10.1553 8.656C10.054 8.65367 9.954 8.65033 9.854 8.647C9.73167 8.64333 9.61233 8.638 9.493 8.633C7.15433 8.52967 5.30867 8.196 4.12967 7.83167C3.22133 7.551 2.70933 7.25233 2.67133 7.027C2.673 7.02067 2.673 7.01533 2.677 7.00733C2.69967 7.013 2.725 7.01767 2.748 7.02333C2.87833 7.05433 3.012 7.08433 3.148 7.113C3.81033 7.25567 4.54433 7.37267 5.32633 7.462C5.329 7.462 5.331 7.46333 5.33333 7.46333C5.334 7.46333 5.33467 7.463 5.335 7.463C5.86767 7.52367 6.42033 7.57133 6.98767 7.605C6.992 7.605 6.99567 7.60733 7 7.60733C7.00233 7.60733 7.004 7.606 7.00633 7.606C7.41467 7.63 7.82833 7.64767 8.247 7.657C8.50333 7.66333 8.755 7.66667 9 7.66667C9.175 7.66667 9.35433 7.66467 9.53533 7.66133C11.9573 7.624 14.202 7.336 15.764 6.88967C15.836 6.86933 15.9063 6.84833 15.9757 6.82733C16.018 6.81433 16.0613 6.80167 16.1023 6.78867C16.223 6.75 16.3387 6.71033 16.4503 6.669C16.4697 6.66167 16.488 6.65433 16.5073 6.647C16.6017 6.61133 16.6923 6.57433 16.779 6.53667C16.804 6.52567 16.8297 6.515 16.854 6.504C16.9463 6.46233 17.0357 6.41967 17.1183 6.37533C17.1557 6.35567 17.188 6.33533 17.223 6.31533C17.263 6.29233 17.303 6.269 17.34 6.24533C17.361 6.232 17.386 6.21933 17.406 6.206C18.8983 6.52967 19.2917 6.88367 19.3297 7.02167ZM9 1.66667C14.4963 1.66667 17.2763 2.532 17.3283 3.02867C17.288 3.254 16.7763 3.55167 15.8703 3.83167C14.691 4.196 12.8457 4.52967 10.507 4.633C10.3873 4.638 10.268 4.643 10.146 4.647C10.0463 4.65033 9.94633 4.65333 9.84467 4.656C9.56867 4.66233 9.28867 4.66667 9 4.66667C8.71133 4.66667 8.43133 4.66233 8.15533 4.656C8.054 4.65367 7.954 4.65033 7.854 4.647C7.73167 4.64333 7.61233 4.638 7.493 4.633C5.15433 4.52967 3.30867 4.196 2.12967 3.83167C1.22333 3.55167 0.712 3.254 0.671667 3.02867C0.723667 2.532 3.50367 1.66667 9 1.66667ZM0.666667 5.332V3.95167C0.933 4.11933 1.27033 4.27233 1.66667 4.41033V6.00633C1.01833 5.76333 0.667333 5.51967 0.666667 5.332ZM2.28133 9.945C2.28633 9.95033 2.294 9.955 2.299 9.96033C2.75533 10.421 3.70033 10.783 4.87667 11.053C4.90367 11.0593 4.93233 11.0653 4.95967 11.0717C5.046 11.091 5.13367 11.11 5.22233 11.1283C6.30267 11.3583 7.59233 11.5247 8.99733 11.607C8.99833 11.607 8.999 11.6073 8.99967 11.6073C9.00033 11.6073 9.00067 11.607 9.001 11.607C9.45233 11.6333 9.914 11.6517 10.3853 11.6597C10.594 11.664 10.7993 11.6667 11 11.6667C11.23 11.6667 11.466 11.664 11.706 11.6583C12.142 11.6493 12.5717 11.6313 12.9953 11.6067C12.997 11.6067 12.9983 11.6077 13 11.6077C13.003 11.6077 13.0053 11.606 13.0083 11.606C14.417 11.523 15.7387 11.355 16.8563 11.1133C16.6143 11.24 16.283 11.371 15.8703 11.4987C14.6253 11.8833 12.637 12.2337 10.11 12.315C10.035 12.3173 9.961 12.32 9.885 12.322C9.80333 12.324 9.72033 12.3253 9.63733 12.327C9.42767 12.3303 9.21667 12.3333 9 12.3333C8.71133 12.3333 8.43133 12.329 8.15533 12.3227C8.054 12.3203 7.954 12.317 7.854 12.3137C7.73167 12.31 7.61233 12.3047 7.493 12.2997C5.15433 12.1963 3.30867 11.8627 2.12967 11.4983C1.213 11.215 0.7 10.9137 0.670333 10.6873C0.707333 10.562 1.04433 10.2483 2.28133 9.945ZM0.666667 12.9987V11.6183C0.933 11.786 1.27033 11.939 1.66667 12.077V13.6667L1.47633 13.5927L1.47233 13.5967C0.949 13.3797 0.667333 13.1667 0.666667 12.9987ZM1.66667 16.6653V15.285C1.933 15.4527 2.27033 15.6057 2.66667 15.7437V17.3397C2.01833 17.0967 1.66733 16.853 1.66667 16.6653ZM17.3333 17.3397V15.744C17.7297 15.606 18.067 15.453 18.3333 15.2853V16.6647C18.333 16.8523 17.9817 17.0963 17.3333 17.3397ZM18.329 14.359C18.2927 14.5847 17.7807 14.884 16.8703 15.1653C15.691 15.5297 13.8457 15.8633 11.507 15.9667C11.3873 15.9717 11.268 15.9767 11.146 15.9807C11.0463 15.984 10.9463 15.987 10.8447 15.9897C10.5687 15.9957 10.2887 16 10 16C9.71133 16 9.431 15.9957 9.15467 15.9893C9.05433 15.987 8.95533 15.9837 8.85633 15.9803C8.73333 15.9763 8.61333 15.9713 8.493 15.9663C6.15433 15.863 4.309 15.5293 3.12967 15.165C2.248 14.8927 1.73867 14.6033 1.67467 14.38C1.774 14.4147 1.877 14.4483 1.98267 14.4813C1.99333 14.4847 2.004 14.488 2.01467 14.491C2.10467 14.5187 2.19667 14.5453 2.291 14.5713C2.32667 14.5813 2.36267 14.5913 2.399 14.601C2.45233 14.6153 2.507 14.629 2.56167 14.643C3.77567 14.954 5.32533 15.1743 6.99833 15.2733C6.999 15.2733 6.99933 15.2737 7 15.2737C7.00033 15.2737 7.00067 15.2733 7.001 15.2733C7.51767 15.304 8.04533 15.323 8.57867 15.3293C8.72067 15.332 8.86167 15.3333 9 15.3333C9.18367 15.3333 9.37167 15.331 9.562 15.3277C10.0483 15.3197 10.5283 15.3017 10.9977 15.2737C10.9987 15.2737 10.9993 15.2743 11.0003 15.2743C11.002 15.2743 11.003 15.2733 11.0047 15.2733C11.5763 15.239 12.1297 15.19 12.6613 15.129C12.6633 15.129 12.665 15.13 12.667 15.13C12.6743 15.13 12.6803 15.1263 12.6877 15.1257C13.2797 15.0573 13.841 14.9733 14.362 14.8757C14.4693 14.856 14.575 14.8357 14.6797 14.8147C14.703 14.81 14.7263 14.8053 14.7497 14.8003C15.734 14.5983 16.586 14.3367 17.1707 14.0123C17.2027 13.995 17.2327 13.977 17.263 13.9593C17.3 13.9373 17.3353 13.915 17.3697 13.8923C17.4017 13.8717 17.4387 13.8517 17.468 13.8307C18.126 14.0653 18.3073 14.2753 18.329 14.359ZM18.3333 10.0063V8.41067C18.7297 8.27267 19.067 8.11967 19.3333 7.952V9.33133C19.333 9.519 18.9817 9.763 18.3333 10.0063Z" fill="black"/>
</svg>
