<svg width="20" height="20" viewBox="0 0 20 20" fill="none" xmlns="http://www.w3.org/2000/svg">
<path d="M19.129 4.30305L18.6442 4.15152C18.5229 4.12121 18.4017 4.09091 18.2502 4.09091C17.7048 4.09091 17.2199 4.45453 17.0381 4.96968L16.7654 5.78785V5.18178V5.15152C16.7654 5.0606 16.7048 4.96968 16.6442 4.90907L11.6745 0.0909162C11.6139 0.0303054 11.5229 0 11.4623 0H1.73506C1.55323 0 1.43205 0.121222 1.43205 0.303014V1.2424H0.310826C0.128994 1.2424 0.0078125 1.36362 0.0078125 1.54541V19.6969C0.0078125 19.8788 0.129034 20 0.310826 20H15.0381C15.2199 20 15.3411 19.8787 15.3411 19.6969V18.7576H16.4623C16.6442 18.7576 16.7653 18.6363 16.7653 18.4545V14.3636L17.6138 13.2121L17.6441 13.1212L19.9169 5.87877C20.1593 5.21213 19.7957 4.51514 19.129 4.30305ZM11.7653 1.0303L15.735 4.8485H11.7653V1.0303ZM14.7351 19.3939H0.61384V1.84847H1.43201V18.4545C1.43201 18.6364 1.55323 18.7576 1.73502 18.7576H14.735V19.3939H14.7351ZM16.1896 18.1515H16.1593H2.03807V0.606068H11.1593V5.15152C11.1593 5.33335 11.2805 5.45453 11.4623 5.45453H16.1896V7.72728L14.7653 12.2121V12.303L14.826 16.1515C14.826 16.2728 14.9169 16.394 15.0381 16.4242C15.1593 16.4545 15.3108 16.4242 15.3714 16.303L16.1896 15.2121V18.1515H16.1896ZM15.4017 15.2121L15.3411 12.697L16.8563 13.1818L15.4017 15.2121ZM19.3714 5.69697L17.1896 12.6364L15.432 12.0606L17.6138 5.15152C17.7351 4.8182 18.0987 4.60606 18.432 4.72728L18.9169 4.87881C19.2805 4.96968 19.4926 5.36365 19.3714 5.69697Z" fill="black"/>
<path d="M4.09867 5.45452H8.46233C8.64417 5.45452 8.76535 5.3333 8.76535 5.15151V2.0606C8.76535 1.87876 8.64412 1.75758 8.46233 1.75758H4.09867C3.91684 1.75758 3.79565 1.87881 3.79565 2.0606V5.15151C3.79565 5.30303 3.94718 5.45452 4.09867 5.45452ZM4.40172 2.36361H8.15932V4.84845H4.40172V2.36361Z" fill="black"/>
<path d="M3.49265 8.30303H12.7048C12.8866 8.30303 13.0078 8.18181 13.0078 8.00002C13.0078 7.81819 12.8866 7.69701 12.7048 7.69701H3.49265C3.31082 7.69701 3.18964 7.81823 3.18964 8.00002C3.1896 8.18181 3.31082 8.30303 3.49265 8.30303Z" fill="black"/>
<path d="M3.49265 10.5152H12.7048C12.8866 10.5152 13.0078 10.3939 13.0078 10.2122C13.0078 10.0304 12.8866 9.90914 12.7048 9.90914H3.49265C3.31082 9.90914 3.18964 10.0304 3.18964 10.2122C3.18964 10.3939 3.31082 10.5152 3.49265 10.5152Z" fill="black"/>
<path d="M3.49265 12.7273H12.7048C12.8866 12.7273 13.0078 12.606 13.0078 12.4243C13.0078 12.2425 12.8866 12.1212 12.7048 12.1212H3.49265C3.31082 12.1212 3.18964 12.2425 3.18964 12.4243C3.18964 12.606 3.31082 12.7273 3.49265 12.7273Z" fill="black"/>
<path d="M12.9775 14.6364C12.9775 14.4546 12.8563 14.3334 12.6745 14.3334H3.49265C3.31082 14.3334 3.18964 14.4546 3.18964 14.6364C3.18964 14.8182 3.31086 14.9394 3.49265 14.9394H12.7048C12.8563 14.9394 12.9775 14.7879 12.9775 14.6364Z" fill="black"/>
<path d="M13.9775 16.5455H9.40171C9.21987 16.5455 9.09869 16.6667 9.09869 16.8485C9.09869 17.0303 9.21992 17.1515 9.40171 17.1515H13.9472C14.129 17.1515 14.2502 17.0303 14.2502 16.8485C14.2502 16.6667 14.129 16.5455 13.9775 16.5455Z" fill="black"/>
</svg>
