<svg width="41" height="40" viewBox="0 0 41 40" fill="none" xmlns="http://www.w3.org/2000/svg">
<g clip-path="url(#clip0)">
<circle cx="27.8049" cy="26.8293" r="12.1951" fill="#FF9600"/>
<rect x="11.7073" y="7.80487" width="22.439" height="4.87805" rx="2.43902" fill="#FF9600"/>
<path d="M6.82922 16.0975C6.82922 14.7505 7.92121 13.6585 9.26825 13.6585H21.6298C22.4052 13.6585 22.6881 14.6798 22.0231 15.0788C21.9753 15.1075 21.9245 15.1308 21.8716 15.1485L20.2123 15.7016C19.4311 15.962 18.7212 16.4007 18.1389 16.983C17.1442 17.9777 15.795 18.5366 14.3882 18.5366H9.26825C7.92121 18.5366 6.82922 17.4446 6.82922 16.0975Z" fill="#FF9600"/>
<path d="M26.0635 25.0272C25.1389 25.0272 24.3867 24.3762 24.3867 23.5759C24.3867 22.7756 25.1389 22.1246 26.0635 22.1246C26.9881 22.1246 27.7403 22.7756 27.7403 23.5759C27.7403 23.9968 28.0817 24.3381 28.5025 24.3381C28.9234 24.3381 29.2647 23.9968 29.2647 23.5759C29.2647 22.1792 28.224 21.0048 26.8257 20.6861V20.2897C26.8257 19.8688 26.4844 19.5275 26.0635 19.5275C25.6426 19.5275 25.3013 19.8688 25.3013 20.2897V20.6861C23.903 21.0048 22.8623 22.1792 22.8623 23.5759C22.8623 25.2167 24.2984 26.5516 26.0635 26.5516C26.9881 26.5516 27.7403 27.2027 27.7403 28.003C27.7403 28.8033 26.9881 29.4544 26.0635 29.4544C25.1389 29.4544 24.3867 28.8033 24.3867 28.003C24.3867 27.5821 24.0454 27.2408 23.6245 27.2408C23.2036 27.2408 22.8623 27.5821 22.8623 28.003C22.8623 29.3997 23.903 30.5741 25.3013 30.8928V31.2221C25.3013 31.643 25.6426 31.9843 26.0635 31.9843C26.4844 31.9843 26.8257 31.643 26.8257 31.2221V30.8928C28.224 30.5741 29.2647 29.3997 29.2647 28.003C29.2647 26.3621 27.8287 25.0272 26.0635 25.0272Z" fill="black"/>
<path d="M34.4117 20.4936C33.416 18.9421 32.0133 17.7007 30.3551 16.9036C29.9756 16.7211 29.5202 16.8808 29.3379 17.2603C29.1555 17.6397 29.3152 18.095 29.6946 18.2774C32.5842 19.6664 34.4511 22.6343 34.4511 25.8384C34.4511 27.2095 34.1132 28.5692 33.4739 29.7707C33.2762 30.1423 33.4172 30.6038 33.7888 30.8015C33.9028 30.8622 34.0254 30.891 34.1461 30.891C34.4188 30.891 34.6826 30.7442 34.8197 30.4867C35.5758 29.0656 35.9755 27.4583 35.9755 25.8384C35.9755 23.936 35.4348 22.0878 34.4117 20.4936Z" fill="black"/>
<path d="M27.2616 15.93L27.2103 15.9299C26.7894 15.9299 26.4481 16.2712 26.4481 16.6921C26.4481 17.1131 26.7894 17.4543 27.2103 17.4543L27.2545 17.4544C27.2557 17.4544 27.2568 17.4544 27.2581 17.4544C27.6774 17.4544 28.0182 17.1155 28.0202 16.6958C28.0221 16.2748 27.6825 15.932 27.2616 15.93Z" fill="black"/>
<path d="M22.4395 33.3995C19.5501 32.0104 17.6831 29.0425 17.6831 25.8385C17.6831 24.4674 18.021 23.1077 18.6603 21.9062C18.858 21.5347 18.7171 21.0731 18.3454 20.8754C17.9739 20.6776 17.5122 20.8186 17.3146 21.1902C16.5584 22.6113 16.1587 24.2186 16.1587 25.8385C16.1587 27.7409 16.6995 29.5891 17.7226 31.1833C18.7182 32.7348 20.121 33.9762 21.7791 34.7734C21.8856 34.8246 21.9981 34.8488 22.1088 34.8488C22.3927 34.8488 22.6651 34.6896 22.7963 34.4167C22.9786 34.0373 22.819 33.5819 22.4395 33.3995Z" fill="black"/>
<path d="M24.9239 34.2226L24.8798 34.2224C24.4569 34.2217 24.116 34.56 24.1141 34.981C24.1122 35.402 24.4519 35.7448 24.8728 35.7468L24.9239 35.747C25.3448 35.747 25.6861 35.4057 25.6861 34.9848C25.6861 34.5639 25.3448 34.2226 24.9239 34.2226Z" fill="black"/>
<g filter="url(#filter0_d)">
<g filter="url(#filter1_d)">
<path d="M29.5281 13.3512C29.4353 13.1302 29.3217 12.9218 29.1894 12.7286H31.1737C33.1069 12.7286 34.6798 11.1558 34.6798 9.22254C34.6798 7.28931 33.1069 5.71645 31.1737 5.71645H25.0701C25.4581 5.15227 25.6859 4.46973 25.6859 3.73474C25.6859 1.80152 24.1131 0.228653 22.1798 0.228653H3.50609C1.57286 0.228653 0 1.80152 0 3.73474C0 5.66797 1.57286 7.24084 3.50609 7.24084H9.60974C9.2217 7.80501 8.99388 8.48756 8.99388 9.22254C8.99388 9.95752 9.22163 10.6401 9.60974 11.2042H7.62194C5.68871 11.2042 4.11585 12.7771 4.11585 14.7103C4.11585 15.8206 4.6352 16.8114 5.44321 17.4542C4.6352 18.0971 4.11585 19.0878 4.11585 20.1981C4.11585 21.3084 4.6352 22.2992 5.44321 22.942C4.6352 23.5849 4.11585 24.5756 4.11585 25.6859C4.11585 26.7962 4.6352 27.787 5.44321 28.4298C4.6352 29.0727 4.11585 30.0634 4.11585 31.1737C4.11585 33.1069 5.68871 34.6798 7.62194 34.6798H16.6044C18.9707 37.2108 22.337 38.7957 26.0671 38.7957C33.2117 38.7957 39.0244 32.9831 39.0244 25.8384C39.0244 19.892 34.9977 14.8691 29.5281 13.3512ZM31.1737 7.24084C32.2665 7.24084 33.1554 8.12986 33.1554 9.22254C33.1554 10.3152 32.2665 11.2042 31.1737 11.2042H26.2957H12.5C11.4072 11.2042 10.5183 10.3152 10.5183 9.22254C10.5183 8.12986 11.4072 7.24084 12.5 7.24084H31.1737ZM3.50609 5.71645C2.41333 5.71645 1.52439 4.82743 1.52439 3.73474C1.52439 2.64206 2.41333 1.75304 3.50609 1.75304H22.1798C23.2726 1.75304 24.1615 2.64206 24.1615 3.73474C24.1615 4.82743 23.2726 5.71645 22.1798 5.71645H3.50609ZM7.62194 12.7286H26.2957C26.6027 12.7286 26.8967 12.8 27.1604 12.9277C26.7999 12.8975 26.4354 12.8811 26.0671 12.8811C22.489 12.8811 19.2451 14.3391 16.898 16.692H7.62194C6.52925 16.692 5.64023 15.803 5.64023 14.7103C5.64023 13.6177 6.52925 12.7286 7.62194 12.7286ZM7.62194 18.2164H15.5956C14.7304 19.4019 14.0614 20.7389 13.6366 22.1798H7.62194C6.52918 22.1798 5.64023 21.2909 5.64023 20.1981C5.64023 19.1054 6.52918 18.2164 7.62194 18.2164ZM7.62194 23.7042H13.2866C13.1709 24.3988 13.1098 25.1115 13.1098 25.8384C13.1098 26.4593 13.1547 27.0698 13.2395 27.6676H7.62194C6.52918 27.6676 5.64023 26.7787 5.64023 25.6859C5.64023 24.5932 6.52918 23.7042 7.62194 23.7042ZM7.62194 33.1554C6.52918 33.1554 5.64023 32.2665 5.64023 31.1737C5.64023 30.081 6.52918 29.192 7.62194 29.192H13.5507C13.9353 30.6259 14.5601 31.9623 15.3795 33.1554H7.62194ZM26.0671 37.2713C19.763 37.2713 14.6342 32.1425 14.6342 25.8384C14.6342 19.5343 19.763 14.4055 26.0671 14.4055C32.3712 14.4055 37.5 19.5343 37.5 25.8384C37.5 32.1425 32.3712 37.2713 26.0671 37.2713Z" fill="black"/>
<path d="M29.067 13.5447L29.1608 13.7682L29.3944 13.833C34.6537 15.2925 38.5244 20.123 38.5244 25.8384C38.5244 32.7069 32.9356 38.2957 26.0671 38.2957C22.4817 38.2957 19.2457 36.7729 16.9696 34.3383L16.8214 34.1798H16.6044H7.62194C5.96485 34.1798 4.61585 32.8308 4.61585 31.1737C4.61585 30.223 5.05997 29.3737 5.7545 28.8211L6.24631 28.4298L5.7545 28.0385C5.05997 27.486 4.61585 26.6366 4.61585 25.6859C4.61585 24.7352 5.05997 23.8859 5.7545 23.3333L6.24631 22.942L5.7545 22.5508C5.05997 21.9982 4.61585 21.1488 4.61585 20.1981C4.61585 19.2474 5.05997 18.3981 5.7545 17.8455L6.24631 17.4542L5.7545 17.063C5.05997 16.5104 4.61585 15.661 4.61585 14.7103C4.61585 13.0532 5.96485 11.7042 7.62194 11.7042H9.60974H10.5606L10.0217 10.9209C9.68878 10.4369 9.49388 9.85262 9.49388 9.22254C9.49388 8.59249 9.68884 8.00814 10.0217 7.52418L10.5605 6.74084H9.60974H3.50609C1.84901 6.74084 0.5 5.39183 0.5 3.73474C0.5 2.07766 1.84901 0.728653 3.50609 0.728653H22.1798C23.8369 0.728653 25.1859 2.07766 25.1859 3.73474C25.1859 4.36479 24.991 4.94914 24.6581 5.4331L24.1193 6.21645H25.0701H31.1737C32.8308 6.21645 34.1798 7.56545 34.1798 9.22254C34.1798 10.8796 32.8308 12.2286 31.1737 12.2286H29.1894H28.2413L28.7768 13.011C28.8898 13.1762 28.9873 13.3547 29.067 13.5447ZM27.1186 13.426L27.3784 12.4777C27.049 12.3182 26.6807 12.2286 26.2957 12.2286H7.62194C6.25311 12.2286 5.14023 13.3415 5.14023 14.7103C5.14023 16.0792 6.25311 17.192 7.62194 17.192H16.898H17.1055L17.252 17.0452C19.5094 14.7821 22.6276 13.3811 26.0671 13.3811C26.4206 13.3811 26.7711 13.3968 27.1186 13.426ZM15.9995 18.5112L16.5796 17.7164H15.5956H7.62194C6.25302 17.7164 5.14023 18.8293 5.14023 20.1981C5.14023 21.567 6.25304 22.6798 7.62194 22.6798H13.6366H14.0104L14.1161 22.3212C14.5244 20.9365 15.1674 19.6512 15.9995 18.5112ZM13.7798 23.7863L13.8767 23.2042H13.2866H7.62194C6.25304 23.2042 5.14023 24.317 5.14023 25.6859C5.14023 27.0548 6.25304 28.1676 7.62194 28.1676H13.2395H13.8155L13.7346 27.5974C13.653 27.0222 13.6098 26.4352 13.6098 25.8384C13.6098 25.1396 13.6686 24.4544 13.7798 23.7863ZM14.0337 29.0625L13.9343 28.692H13.5507H7.62194C6.25304 28.692 5.14023 29.8048 5.14023 31.1737C5.14023 32.5426 6.25304 33.6554 7.62194 33.6554H15.3795H16.3294L15.7916 32.8724C15.0038 31.7251 14.4033 30.4405 14.0337 29.0625ZM33.6554 9.22254C33.6554 7.85373 32.5426 6.74084 31.1737 6.74084H12.5C11.1311 6.74084 10.0183 7.85373 10.0183 9.22254C10.0183 10.5913 11.1311 11.7042 12.5 11.7042H26.2957H31.1737C32.5426 11.7042 33.6554 10.5913 33.6554 9.22254ZM1.02439 3.73474C1.02439 5.10355 2.13718 6.21645 3.50609 6.21645H22.1798C23.5487 6.21645 24.6615 5.10356 24.6615 3.73474C24.6615 2.36593 23.5487 1.25304 22.1798 1.25304H3.50609C2.13718 1.25304 1.02439 2.36593 1.02439 3.73474ZM14.1342 25.8384C14.1342 32.4187 19.4869 37.7713 26.0671 37.7713C32.6473 37.7713 38 32.4187 38 25.8384C38 19.2582 32.6473 13.9055 26.0671 13.9055C19.4869 13.9055 14.1342 19.2582 14.1342 25.8384Z" stroke="black"/>
</g>
</g>
</g>
<defs>
<filter id="filter0_d" x="-4" y="0.228653" width="47.0244" height="46.5671" filterUnits="userSpaceOnUse" color-interpolation-filters="sRGB">
<feFlood flood-opacity="0" result="BackgroundImageFix"/>
<feColorMatrix in="SourceAlpha" type="matrix" values="0 0 0 0 0 0 0 0 0 0 0 0 0 0 0 0 0 0 127 0"/>
<feOffset dy="4"/>
<feGaussianBlur stdDeviation="2"/>
<feColorMatrix type="matrix" values="0 0 0 0 0 0 0 0 0 0 0 0 0 0 0 0 0 0 0.25 0"/>
<feBlend mode="normal" in2="BackgroundImageFix" result="effect1_dropShadow"/>
<feBlend mode="normal" in="SourceGraphic" in2="effect1_dropShadow" result="shape"/>
</filter>
<filter id="filter1_d" x="-4" y="0.228653" width="47.0244" height="46.5671" filterUnits="userSpaceOnUse" color-interpolation-filters="sRGB">
<feFlood flood-opacity="0" result="BackgroundImageFix"/>
<feColorMatrix in="SourceAlpha" type="matrix" values="0 0 0 0 0 0 0 0 0 0 0 0 0 0 0 0 0 0 127 0"/>
<feOffset dy="4"/>
<feGaussianBlur stdDeviation="2"/>
<feColorMatrix type="matrix" values="0 0 0 0 0 0 0 0 0 0 0 0 0 0 0 0 0 0 0.25 0"/>
<feBlend mode="normal" in2="BackgroundImageFix" result="effect1_dropShadow"/>
<feBlend mode="normal" in="SourceGraphic" in2="effect1_dropShadow" result="shape"/>
</filter>
<clipPath id="clip0">
<rect width="41" height="40" fill="white"/>
</clipPath>
</defs>
</svg>
