<svg width="20" height="18" viewBox="0 0 20 18" fill="none" xmlns="http://www.w3.org/2000/svg">
<path d="M20 7.02186L19.5933 6.61519L17.8091 8.39976C17.499 3.76271 13.6302 0.084259 8.91574 0.084259C3.99941 0.084259 0 4.08396 0 9C0 13.9163 3.99941 17.9157 8.91574 17.9157C11.5119 17.9157 13.9744 16.7869 15.6713 14.8185L15.2353 14.4426C13.6477 16.2842 11.3445 17.3402 8.91545 17.3402C4.31667 17.3402 0.574932 13.5985 0.574932 8.99971C0.574932 4.40064 4.31667 0.659191 8.91545 0.659191C13.2951 0.659191 16.8948 4.0535 17.2281 8.34915L15.6856 6.80674L15.279 7.21341L17.3403 9.27469H17.7469L20 7.02186Z" fill="white"/>
</svg>
